HIERARCHY
ROOT root
{
	OFFSET 0.000000 0.000000 0.000000
	CHANNELS 6 Xposition Yposition Zposition Zrotation Yrotation Xrotation
	JOINT lhip
	{
		OFFSET 0.058581 -0.082280 -0.017664
		CHANNELS 3 Zrotation Yrotation Xrotation
		JOINT lknee
		{
			OFFSET 0.043451 -0.386469 0.008037
			CHANNELS 3 Zrotation Yrotation Xrotation
			JOINT lankle
			{
				OFFSET -0.014790 -0.426874 -0.037428
				CHANNELS 3 Zrotation Yrotation Xrotation
				JOINT ltoe
				{
					OFFSET 0.041054 -0.060286 0.122042
					CHANNELS 3 Zrotation Yrotation Xrotation
					End Site
					{
						OFFSET 0.000000 0.000000 0.000000
					}
				}
			}
		}
	}
	JOINT rhip
	{
		OFFSET -0.060310 -0.090513 -0.013543
		CHANNELS 3 Zrotation Yrotation Xrotation
		JOINT rknee
		{
			OFFSET -0.043257 -0.383688 -0.004843
			CHANNELS 3 Zrotation Yrotation Xrotation
			JOINT rankle
			{
				OFFSET 0.019056 -0.420046 -0.034562
				CHANNELS 3 Zrotation Yrotation Xrotation
				JOINT rtoe
				{
					OFFSET -0.034840 -0.062106 0.130323
					CHANNELS 3 Zrotation Yrotation Xrotation
					End Site
					{
						OFFSET 0.000000 0.000000 0.000000
					}
				}
			}
		}
	}
	JOINT lowerback
	{
		OFFSET 0.004439 0.124404 -0.038385
		CHANNELS 3 Zrotation Yrotation Xrotation
		JOINT upperback
		{
			OFFSET 0.004488 0.137956 0.026820
			CHANNELS 3 Zrotation Yrotation Xrotation
			JOINT chest
			{
				OFFSET -0.002265 0.056032 0.002855
				CHANNELS 3 Zrotation Yrotation Xrotation
				JOINT lowerneck
				{
					OFFSET -0.013390 0.211636 -0.033468
					CHANNELS 3 Zrotation Yrotation Xrotation
					JOINT upperneck
					{
						OFFSET 0.010113 0.088937 0.050410
						CHANNELS 3 Zrotation Yrotation Xrotation
						End Site
						{
							OFFSET 0.000000 0.000000 0.000000
						}
					}
				}
				JOINT lclavicle
				{
					OFFSET 0.071702 0.114000 -0.018898
					CHANNELS 3 Zrotation Yrotation Xrotation
					JOINT lshoulder
					{
						OFFSET 0.122921 0.045205 -0.019046
						CHANNELS 3 Zrotation Yrotation Xrotation
						JOINT lelbow
						{
							OFFSET 0.255332 -0.015649 -0.022946
							CHANNELS 3 Zrotation Yrotation Xrotation
							JOINT lwrist
							{
								OFFSET 0.265709 0.012698 -0.007375
								CHANNELS 3 Zrotation Yrotation Xrotation
								End Site
								{
									OFFSET 0.000000 0.000000 0.000000
								}
							}
						}
					}
				}
				JOINT rclavicle
				{
					OFFSET -0.082954 0.112472 -0.023707
					CHANNELS 3 Zrotation Yrotation Xrotation
					JOINT rshoulder
					{
						OFFSET -0.113228 0.046853 -0.008472
						CHANNELS 3 Zrotation Yrotation Xrotation
						JOINT relbow
						{
							OFFSET -0.260127 -0.014369 -0.031269
							CHANNELS 3 Zrotation Yrotation Xrotation
							JOINT rwrist
							{
								OFFSET -0.269108 0.006794 -0.006027
								CHANNELS 3 Zrotation Yrotation Xrotation
								End Site
								{
									OFFSET 0.000000 0.000000 0.000000
								}
							}
						}
					}
				}
			}
		}
	}
}
MOTION
Frames: 11
Frame Time: 0.033333
-0.055017 0.235776 1.009099 96.259284 0.962951 86.242071 2.563175 -0.016114 -8.347191 -2.960547 -11.077768 15.736159 -0.339916 6.757340 -6.131519 0.000000 -0.000000 0.000000 -2.019894 -3.119251 -5.469864 -1.144006 0.866673 13.135102 0.238047 -10.087546 -3.782699 0.000000 -0.000000 0.000000 -3.088983 4.390004 9.510127 1.798877 -5.148761 27.750274 0.710172 2.640661 -5.163395 -15.213965 -17.604482 54.266564 12.229076 -23.862893 -3.486460 10.692671 -21.526163 -8.799600 -4.205024 -49.048599 -27.319430 100.929398 -50.115971 -113.346102 -36.888035 -24.041127 -39.553308 -12.932084 36.826334 -7.074159 35.280293 67.125646 0.131166 -10.036110 -5.217959 2.736837 56.560680 -1.007940 -27.824126 
-0.047856 0.236280 1.008844 95.880501 0.934668 85.869577 2.559831 0.059698 -7.274619 -2.855515 -11.106997 15.518914 -0.320372 7.132414 -6.276397 0.000000 -0.000000 0.000000 -1.955087 -3.083939 -4.402042 -1.205847 1.357951 12.651263 0.327398 -10.386471 -3.963868 0.000000 -0.000000 0.000000 -3.243806 4.420749 8.397475 1.805563 -5.032075 25.991425 0.658682 2.699525 -4.995099 -14.884483 -17.990188 53.321687 12.173482 -24.241789 -3.413299 11.548406 -20.310974 -9.573033 -2.229834 -47.836343 -28.068636 100.997325 -50.380190 -113.750226 -37.073434 -24.483077 -39.355305 -13.480875 36.168564 -7.789108 33.229553 67.218690 -1.334754 -9.878790 -5.532967 2.137531 55.370755 -1.324677 -27.348542 
-0.040304 0.236817 1.008688 95.498186 0.919277 85.436667 2.585414 0.149477 -6.027984 -2.763510 -11.171973 15.111038 -0.280957 7.500897 -6.608804 0.000000 -0.000000 0.000000 -1.915770 -3.057997 -3.239152 -1.211228 1.924037 12.151735 0.507175 -10.676704 -4.124390 0.000000 -0.000000 0.000000 -3.459154 4.436226 6.992790 1.873971 -4.870758 24.625382 0.622238 2.625280 -4.546811 -14.385199 -18.567834 52.023787 12.241311 -24.639435 -3.845416 12.692937 -18.753005 -10.656070 -0.177075 -46.520487 -28.888479 100.868381 -50.678018 -114.586084 -37.428046 -24.633335 -38.808810 -14.102833 35.453791 -8.754675 30.537551 67.429670 -3.028300 -9.442804 -5.752714 1.786127 55.832373 -1.131982 -27.593211 
-0.032421 0.237598 1.008431 95.300384 0.966998 85.078254 2.633875 0.314057 -4.950840 -2.651654 -11.327657 14.878083 -0.204225 7.722995 -7.005010 0.000000 -0.000000 0.000000 -1.807506 -3.125461 -2.164539 -1.243804 2.450107 11.795830 0.604089 -11.026063 -4.412081 0.000000 -0.000000 0.000000 -3.492029 4.256302 5.478486 1.865454 -4.819550 23.097921 0.535222 2.659736 -3.994899 -13.700916 -19.057927 50.586499 12.185365 -25.289862 -4.173658 13.670758 -17.567834 -11.828276 1.480273 -45.503708 -29.650521 100.494325 -50.877114 -114.954007 -38.233081 -24.723349 -38.420219 -15.120875 34.753745 -9.871290 28.916444 67.360270 -3.852638 -9.405384 -5.729581 1.455709 56.441608 -0.875541 -28.956436 
-0.024591 0.237841 1.008263 95.139605 0.827122 84.857511 2.563084 0.424422 -3.975530 -2.639001 -11.435865 14.601604 -0.119864 7.977485 -7.414779 0.000000 -0.000000 0.000000 -1.897034 -3.073009 -1.226945 -1.305046 2.753534 11.488538 0.638138 -11.336507 -4.797816 0.000000 -0.000000 0.000000 -3.503579 3.870484 4.358344 1.429038 -5.026978 21.265277 0.077463 2.903224 -3.896944 -13.059686 -19.136538 49.474441 12.638217 -25.197832 -4.491370 14.399208 -16.498425 -12.747457 4.169019 -44.458241 -30.800686 99.416491 -51.321616 -114.761668 -40.112267 -25.429471 -37.970664 -15.563735 34.446983 -10.600311 27.049839 67.735058 -4.968073 -9.519249 -6.561445 1.019123 58.506949 -0.351503 -29.676031 
-0.016522 0.238348 1.007908 94.996796 0.821558 84.585159 2.610291 0.633420 -2.923671 -2.616340 -11.724402 14.263667 -0.097849 8.235553 -7.726181 0.000000 -0.000000 0.000000 -1.823622 -3.070369 -0.280882 -1.316523 3.222470 11.224674 0.686441 -11.799058 -5.104205 0.000000 -0.000000 0.000000 -3.844621 4.019107 2.603410 1.697191 -4.695023 20.167366 0.247666 2.637821 -3.511060 -12.387509 -19.767482 47.692864 12.740312 -25.924519 -4.418242 15.279097 -15.974115 -13.633542 6.417815 -43.579594 -32.095970 98.158786 -51.558776 -114.420025 -41.120836 -25.658540 -37.207238 -16.505159 33.778434 -11.736989 24.836878 67.444516 -6.589773 -8.891375 -6.732634 0.381141 59.050339 -0.109663 -30.101733 
-0.008322 0.238963 1.007479 94.911626 0.797337 84.360098 2.600740 0.770116 -2.075815 -2.552345 -11.920424 14.210539 -0.149243 8.433053 -8.117077 0.000000 -0.000000 0.000000 -1.800455 -3.135820 0.729091 -1.351204 3.647851 10.833242 0.732534 -12.156745 -5.432826 0.000000 -0.000000 0.000000 -4.048375 3.963807 1.219969 1.752726 -4.683438 18.806557 0.244881 2.597475 -3.393414 -11.689312 -20.140730 46.216457 12.918765 -26.148059 -4.736764 16.201938 -15.195586 -14.393343 8.203927 -42.786973 -33.071169 97.006025 -51.845321 -114.289526 -42.196895 -26.190478 -37.086644 -17.118331 33.354623 -12.478966 22.643648 67.320938 -8.112780 -8.356673 -6.882887 0.067436 59.742778 0.286372 -31.207122 
-0.000444 0.239447 1.007077 94.833436 0.732908 84.202678 2.572238 0.870615 -1.021751 -2.359681 -11.986427 13.588586 -0.092131 8.552160 -8.343599 0.000000 -0.000000 0.000000 -1.823731 -3.154741 1.653403 -1.408352 3.946456 10.416201 0.778563 -12.428269 -5.690209 0.000000 -0.000000 0.000000 -4.252852 3.830688 0.074260 1.765138 -4.690463 17.301381 0.195521 2.658787 -3.358000 -10.877460 -20.442205 44.770305 13.081395 -26.610634 -4.937157 17.183923 -14.220941 -15.254342 9.564066 -42.238435 -33.455621 95.856647 -51.751403 -113.927359 -43.550607 -26.637420 -36.931848 -17.880444 32.820736 -13.311169 22.016979 67.301604 -8.063079 -8.540498 -6.992645 -0.734889 60.523582 0.673032 -32.501028 
0.007393 0.240087 1.006729 94.729854 0.678268 83.866416 2.552780 1.082067 0.155503 -2.217699 -12.201957 13.152009 -0.201781 8.836956 -8.667617 0.000000 -0.000000 0.000000 -1.888744 -3.199208 2.860286 -1.468478 4.181730 9.878064 0.846401 -12.586657 -5.970069 0.000000 -0.000000 0.000000 -4.348340 3.788606 -0.974907 1.779579 -4.616376 16.139713 0.170706 2.661692 -3.318302 -10.160987 -20.851848 43.438302 13.330801 -26.651216 -5.421113 18.121025 -13.549906 -16.004219 10.747042 -41.600656 -34.084524 95.031017 -51.440344 -113.513401 -44.428860 -26.853349 -37.076185 -18.770070 32.331863 -14.155373 19.654527 67.139637 -9.925955 -7.980330 -7.220882 -1.308865 60.869163 0.956289 -33.242821 
0.014794 0.240617 1.006368 94.570913 0.663799 83.591252 2.540439 1.249186 1.224373 -2.082582 -12.430427 12.731624 -0.193601 9.148745 -8.859484 0.000000 -0.000000 0.000000 -1.856531 -3.262996 3.938933 -1.557823 4.573545 9.319787 0.918712 -12.894579 -6.177975 0.000000 -0.000000 0.000000 -4.505534 3.914271 -2.416627 1.856550 -4.441246 15.708373 0.221449 2.679953 -3.364113 -9.623275 -21.298516 42.227017 14.036050 -26.652365 -6.088865 18.565624 -13.264992 -16.543404 12.674730 -40.922059 -35.593383 94.103153 -51.541231 -113.392672 -45.603979 -27.070317 -36.945201 -19.287626 31.893162 -14.663414 16.621285 66.894685 -12.649732 -8.045253 -7.448252 -0.683091 62.351131 0.947662 -32.731995 
0.022126 0.240973 1.005580 94.487582 0.592628 83.378652 2.554583 1.489099 2.262331 -1.997266 -12.654312 12.188775 -0.173767 9.319508 -9.191701 0.000000 -0.000000 0.000000 -1.955810 -3.518148 4.877058 -1.613458 5.021343 8.914931 0.961536 -13.074771 -6.451693 0.000000 -0.000000 0.000000 -4.612072 3.911261 -3.547965 1.845000 -4.459428 14.913824 0.182948 2.679924 -3.530148 -9.263097 -21.585943 41.116659 13.987135 -26.805719 -5.982512 18.540377 -13.031006 -17.262620 14.498470 -40.412628 -36.656628 93.379900 -51.625790 -113.229445 -47.013255 -26.770092 -36.312665 -19.422927 31.920304 -14.998248 14.307612 66.739045 -14.427273 -8.336092 -7.769240 -1.528114 63.169440 -0.036999 -32.422928 
